<svg width="628" height="549" viewBox="0 0 628 549" fill="none" xmlns="http://www.w3.org/2000/svg">
<g clip-path="url(#clip0)">
<path d="M531.201 327.768C534.893 341.36 526.18 355.211 511.739 358.705L121.695 453.088C107.254 456.582 92.5538 448.395 88.8618 434.805L24.2359 196.924C20.5434 183.333 29.2567 169.483 43.6975 165.988L433.741 71.6058C448.183 68.1112 462.882 76.2969 466.574 89.8876L531.201 327.768Z" fill="white"/>
<path d="M475.06 121.121L32.7209 228.157L48.6275 286.708L490.966 179.671L475.06 121.121Z" fill="#286CFF"/>
<path d="M490.971 179.687L48.6321 286.724L58.474 322.951L500.813 215.914L490.971 179.687Z" fill="#F5F5F5"/>
<path opacity="0.15" d="M107.451 430.307L42.8253 192.426C39.1329 178.834 47.8479 164.984 62.2887 161.49L43.6967 165.988C29.2567 169.483 20.5439 183.334 24.2359 196.924L88.8618 434.805C92.5542 448.397 107.254 456.582 121.695 453.088L140.287 448.589C125.846 452.083 111.143 443.897 107.451 430.307Z" fill="#AAAAAA"/>
<path d="M227.589 362.601L137.198 384.473C133.214 385.437 129.16 383.181 128.142 379.431C127.123 375.681 129.525 371.862 133.51 370.898L223.901 349.025C227.884 348.061 231.938 350.318 232.957 354.068C233.976 357.818 231.572 361.637 227.589 362.601Z" fill="#C7C7C7"/>
<path d="M235.254 390.814L144.863 412.687C140.879 413.651 136.825 411.394 135.806 407.644C134.788 403.895 137.19 400.076 141.175 399.111L231.566 377.239C235.549 376.275 239.603 378.531 240.622 382.281C241.64 386.029 239.237 389.85 235.254 390.814Z" fill="#E4E4E4"/>
</g>
<g clip-path="url(#clip1)">
<path d="M628 456.924C628 470.952 615.913 482.324 601.002 482.324H198.27C183.36 482.324 171.272 470.951 171.272 456.924V211.403C171.272 197.375 183.36 186.003 198.27 186.003H601.001C615.913 186.003 627.999 197.375 627.999 211.403L628 456.924Z" fill="white"/>
<path d="M628 243.639H171.272V304.07H628V243.639Z" fill="#286CFF"/>
<path d="M628 304.087H171.272V341.478H628V304.087Z" fill="#F5F5F5"/>
<path opacity="0.15" d="M190.467 456.924V211.403C190.467 197.375 202.556 186.003 217.466 186.003H198.269C183.36 186.003 171.272 197.376 171.272 211.403V456.924C171.272 470.952 183.36 482.324 198.27 482.324H217.467C202.556 482.324 190.467 470.951 190.467 456.924Z" fill="#AAAAAA"/>
<path d="M505.751 411.531C505.751 398.928 511.924 387.682 521.578 380.318C514.239 374.722 504.892 371.365 494.709 371.365C471.13 371.365 452.015 389.347 452.015 411.531C452.015 433.714 471.13 451.697 494.709 451.697C504.892 451.697 514.24 448.341 521.578 442.743C511.923 435.379 505.751 424.134 505.751 411.531Z" fill="#286CFF"/>
<path d="M548.444 371.365C538.262 371.365 528.914 374.721 521.577 380.318C531.232 387.682 537.403 398.928 537.403 411.531C537.403 424.134 531.232 435.379 521.577 442.743C528.916 448.34 538.263 451.697 548.444 451.697C572.026 451.697 591.14 433.714 591.14 411.531C591.14 389.347 572.026 371.365 548.444 371.365Z" fill="#286CFF" fill-opacity="0.4"/>
<path d="M537.403 411.531C537.403 398.928 531.232 387.682 521.577 380.318C511.923 387.682 505.75 398.928 505.75 411.531C505.75 424.134 511.923 435.379 521.577 442.743C531.232 435.379 537.403 424.134 537.403 411.531Z" fill="#286CFF" fill-opacity="0.2"/>
<path d="M314.056 390.158H220.725C216.612 390.158 213.278 387.023 213.278 383.152C213.278 379.283 216.611 376.147 220.725 376.147H314.056C318.169 376.147 321.503 379.282 321.503 383.152C321.503 387.023 318.169 390.158 314.056 390.158Z" fill="#AAAAAA"/>
<path d="M314.056 419.278H220.725C216.612 419.278 213.278 416.142 213.278 412.272C213.278 408.401 216.611 405.266 220.725 405.266H314.056C318.169 405.266 321.503 408.401 321.503 412.272C321.503 416.142 318.169 419.278 314.056 419.278Z" fill="#C7C7C7"/>
<path d="M314.056 448.397H220.725C216.612 448.397 213.278 445.262 213.278 441.391C213.278 437.522 216.611 434.386 220.725 434.386H314.056C318.169 434.386 321.503 437.521 321.503 441.391C321.503 445.26 318.169 448.397 314.056 448.397Z" fill="#E4E4E4"/>
</g>
<defs>
<clipPath id="clip0">
<rect width="455.105" height="431.39" fill="white" transform="matrix(0.971949 -0.235191 0.26217 0.965022 0 107.715)"/>
</clipPath>
<clipPath id="clip1">
<rect width="456.727" height="429.672" fill="white" transform="translate(171.272 119.328)"/>
</clipPath>
</defs>
</svg>
